<svg width="54" height="54" fill="none" xmlns="http://www.w3.org/2000/svg"><circle cx="27" cy="27" r="27" fill="#FEFFFE"/><path fill-rule="evenodd" clip-rule="evenodd" d="M12.857 34.281c2.097-14.327 3.612-20.612 6.122-22.218.072 1.501.826 2.788 3.525 4.073-2.05 2.854-1.685 6.466-.045 9.745.838.798 1.673 1.599 2.389 2.501.543.705 1.257 1.149 2.13 1.352.77-.17 1.456-.551 2.077-1.092a23.806 23.806 0 012.44-2.495c.952-1.32 1.49-3.288 1.403-6.236.006-1.412-.421-2.746-1.558-3.95 1.946-.775 3.457-1.857 3.531-3.95 2.99 2.486 4.541 11.215 5.454 22.712l.39.676c-6.797 14.99-22.056 13.884-27.63-.835-.028-.074-.195-.21-.228-.283zm27.146.601h-1.676c-4.707 11.677-19.663 10.263-23.035-.4l-1.504-.061c3.343 9.95 11.193 11.034 13.08 11.002 2.26-.037 10.106-1.03 13.135-10.54zm-2.162-.117l-.04-.09-1.877-13.179.948 13.178-.363.156c-4.747 6.476-13.381 7.084-18.51-.156l-1.453-.048.688-13.13-1.701 12.542.197.636c2.225 5.715 7.302 7.875 11.047 7.865 3.83-.01 8.697-2.018 11.064-7.774zm-2.012-.09h-1.197l-.941-8.09.234 8.09h-.28c-3.798 4.082-9.234 4.415-13.115.009h-.583l.325-8.1-1.078 8.09-.634.014c1.498 1.947 4.952 4.717 8.697 4.706 3.83-.01 7.516-2.953 8.572-4.72zm-3.019 0l-1.677-.001c-2.69 1.223-5.27 1.181-7.752-.003l-1.971.003c1.498 1.947 3.857 2.647 5.744 2.615 2.26-.037 4.574-1.186 5.656-2.615zm-9.134-1.67c2.338.959 4.924.954 7.515-.032l-.014 1.087c-2.24 1.116-4.933 1.166-7.5.237v-1.292zm.179-1.777c2.708.16 5.134-.542 7.27-2.131l-.046 3.222c-2.24 1.116-4.656 1.13-7.224.202v-1.293z" fill="url(#paint0_linear_78_10)"/><path fill-rule="evenodd" clip-rule="evenodd" d="M27.069 11.093c-.315-1.26-1.242-2.073-2.734-2.502 1.755-.586 3.573-.613 5.466.013-1.621.45-2.415 1.258-2.732 2.489z" fill="#E9BC47"/><path fill-rule="evenodd" clip-rule="evenodd" d="M20.874 13.146c-2.461-3.913 5.947-5.3 4.085-1.04-1.26 2.032.366 2.944 2.11 3.586v-.024c1.742-.642 3.369-1.554 2.109-3.587-1.862-4.258 6.546-2.872 4.084 1.04-.54.717-1.602 1.373-3.116 1.912-.858.306-4.026.955-1.863 1.96-.34.032-.891-.005-1.215-.493v.024c-.323.488-.874.525-1.214.493 2.162-1.005-1.005-1.654-1.864-1.96-1.513-.539-2.575-1.195-3.116-1.912z" fill="#E9BC47"/><path fill-rule="evenodd" clip-rule="evenodd" d="M26.102 13.126c-.203-.081-.29-.06-.302-.176l-.081-1.016c-.038-.093-.122-.101-.185-.004a2.04 2.04 0 00-.234 1.137c.225.673 1.267.274.802.059zm1.993 0c.203-.081.289-.06.302-.176l.08-1.016c.038-.093.122-.101.186-.004.175.33.266.703.233 1.137-.224.673-1.267.274-.801.059zm-5.62 5.243c-.302.093-.52.24-.675.429.634-.137 1.298-.241 1.915.126l1.954 1.199c.095.03.177.008.247-.065a.52.52 0 00-.013-.325c-.741-.54-1.496-.996-2.272-1.312-.413-.17-.796-.177-1.156-.052z" fill="#E9BC47"/><path fill-rule="evenodd" clip-rule="evenodd" d="M22.772 20.633l-.642-.513.681.24c1.048-.566 1.897.022 2.662.63-.125-.435-.45-.82-.922-1.17-.642-.468-1.424-.592-2.292-.506-.627.087-.815.555-.688 1.137.336.7.923 1.194 1.669 1.377-.132-.13-.201-.255-.221-.377-.037-.22-.017-.398.059-.532.107-.096.24-.084.383-.033-.134 1.229 1.162 1.316 1.356.345l.195.168c.094.128.136.332.117.624l.493.11c-.006-.275-.043-.54-.162-.773-.212-.348-.465-.663-.902-.837-.689-.237-1.158-.21-1.786.11zm1.597.214c.153 0 .276.115.276.256 0 .142-.123.257-.276.257-.152 0-.276-.115-.276-.256 0-.142.124-.257.276-.257zm2.218 5.737c-.503-.09-1.013-.074-1.525 0 .257-.792 1.277-1.295 2.007-.754v-.001c.73-.541 1.75-.038 2.008.754a4.735 4.735 0 00-1.526 0 1.187 1.187 0 01-.482.17c-.177-.024-.339-.05-.482-.169z" fill="#E9BC47"/><path fill-rule="evenodd" clip-rule="evenodd" d="M27.07 27.873c-.945.01-1.594-.367-1.984-1.085a5.877 5.877 0 011.405-.011 1.54 1.54 0 001.13-.01c.468-.057.93-.075 1.38-.01-.405.78-1.06 1.133-1.932 1.116zm-.393-3.189c-.04-.228-.513-.087-.77-.13.139-.183.322-.29.617-.204.158.051.228.152.152.334zm.714 0c.04-.228.513-.087.77-.13-.139-.183-.323-.29-.617-.204-.158.051-.228.152-.153.334zm4.245-6.432c.302.093.52.24.675.429-.634-.136-1.298-.241-1.915.127l-1.954 1.198a.222.222 0 01-.247-.065.52.52 0 01.013-.325c.741-.54 1.496-.996 2.272-1.312.412-.17.796-.177 1.156-.052z" fill="#E9BC47"/><path fill-rule="evenodd" clip-rule="evenodd" d="M31.337 20.516l.643-.513-.682.24c-1.047-.566-1.896.022-2.661.63.124-.435.45-.82.921-1.17.643-.468 1.425-.592 2.292-.506.627.087.816.555.688 1.137-.335.7-.922 1.194-1.668 1.377.132-.13.201-.255.22-.377.037-.22.018-.398-.058-.532-.108-.096-.24-.084-.383-.033.133 1.229-1.163 1.316-1.357.345l-.195.168c-.094.128-.135.332-.117.624l-.493.11c.007-.275.043-.54.163-.772.211-.349.465-.664.902-.838.688-.237 1.158-.21 1.785.11zm-1.597.215c-.152 0-.276.114-.276.255 0 .142.124.257.276.257.153 0 .276-.115.276-.256 0-.142-.123-.256-.276-.256z" fill="#E9BC47"/><defs><linearGradient id="paint0_linear_78_10" x1="40.714" y1="46.134" x2="12.833" y2="12.03" gradientUnits="userSpaceOnUse"><stop stop-color="#CA9000"/><stop offset=".02" stop-color="#BB7F00"/><stop offset=".039" stop-color="#AC6E00"/><stop offset=".051" stop-color="#915900"/><stop offset=".122" stop-color="#B3872C"/><stop offset=".251" stop-color="#D6B659"/><stop offset=".502" stop-color="#FFF6AC"/><stop offset=".678" stop-color="#EBD683"/><stop offset=".749" stop-color="#D6B659"/><stop offset=".871" stop-color="#B4882D"/><stop offset=".941" stop-color="#915900"/><stop offset=".949" stop-color="#AC6E00"/><stop offset="1" stop-color="#CA9000"/></linearGradient></defs></svg>