<svg width="458" height="464" fill="none" xmlns="http://www.w3.org/2000/svg"><g filter="url(#filter0_b_334_500)"><path d="M153.632 12.576a231.563 231.563 0 01274.011 334.391 231.56 231.56 0 01-236.01 114.375A231.559 231.559 0 01.227 282.047l83.743-18.38a145.828 145.828 0 00120.537 112.91 145.824 145.824 0 00134.692-236.598 145.824 145.824 0 00-158.622-46.01l-26.945-81.393z" fill="#000" fill-opacity=".3"/><path d="M153.632 12.576a231.563 231.563 0 01274.011 334.391 231.56 231.56 0 01-236.01 114.375A231.559 231.559 0 01.227 282.047l83.743-18.38a145.828 145.828 0 00120.537 112.91 145.824 145.824 0 00134.692-236.598 145.824 145.824 0 00-158.622-46.01l-26.945-81.393z" fill="url(#paint0_linear_334_500)"/></g><defs><linearGradient id="paint0_linear_334_500" x1="6.479" y1="159.927" x2="446.332" y2="304.884" gradientUnits="userSpaceOnUse"><stop stop-opacity=".2"/><stop offset="1" stop-opacity="0"/></linearGradient><filter id="filter0_b_334_500" x="-3.773" y="-3.156" width="465.741" height="471.124" filterUnits="userSpaceOnUse" color-interpolation-filters="sRGB"><feFlood flood-opacity="0" result="BackgroundImageFix"/><feGaussianBlur in="BackgroundImageFix" stdDeviation="2"/><feComposite in2="SourceAlpha" operator="in" result="effect1_backgroundBlur_334_500"/><feBlend in="SourceGraphic" in2="effect1_backgroundBlur_334_500" result="shape"/></filter></defs></svg>