<svg width="34" height="27" fill="none" xmlns="http://www.w3.org/2000/svg"><path d="M10.935 12.442c1.284.565 2.285 1.413 3.004 2.542.719 1.13 1.078 2.465 1.078 4.006 0 2.208-.693 4.006-2.08 5.392-1.386 1.335-3.158 2.003-5.315 2.003-2.157 0-3.954-.693-5.392-2.08C.844 22.92.15 21.147.15 18.99c0-1.027.129-2.054.385-3.081.257-1.027.822-2.568 1.695-4.622L6.698.194h7.626l-3.39 12.248zm18.18 0c1.283.565 2.284 1.413 3.003 2.542.72 1.13 1.079 2.465 1.079 4.006 0 2.208-.694 4.006-2.08 5.392-1.387 1.335-3.158 2.003-5.315 2.003-2.157 0-3.955-.693-5.392-2.08-1.387-1.386-2.08-3.158-2.08-5.315 0-1.027.128-2.054.385-3.081.257-1.027.822-2.568 1.695-4.622L24.877.194h7.626l-3.389 12.248z" fill="#131313"/></svg>