<svg width="34" height="27" fill="none" xmlns="http://www.w3.org/2000/svg"><path d="M7.965.008c2.157 0 3.929.693 5.315 2.08 1.387 1.335 2.08 3.107 2.08 5.315 0 1.027-.128 2.054-.385 3.081-.257 1.027-.796 2.568-1.618 4.622L8.89 26.198H1.263l3.313-12.17c-1.284-.565-2.286-1.413-3.005-2.543C.852 10.355.493 8.995.493 7.404c0-2.208.693-3.98 2.08-5.315C4.01.7 5.808.008 7.965.008zm18.18 0c2.156 0 3.928.693 5.314 2.08 1.387 1.335 2.08 3.107 2.08 5.315 0 1.027-.128 2.054-.385 3.081-.257 1.027-.796 2.568-1.617 4.622l-4.468 11.092h-7.626l3.312-12.17c-1.284-.565-2.285-1.413-3.004-2.543-.72-1.13-1.079-2.49-1.079-4.082 0-2.208.694-3.98 2.08-5.315C22.19.7 23.988.008 26.144.008z" fill="#131313"/></svg>